<svg width="145" height="34" viewBox="0 0 145 34" fill="none" xmlns="http://www.w3.org/2000/svg">
<path d="M46.84 10.088V7.68H61.288V10.088H46.84ZM52.72 27V7.68H55.408V27H52.72ZM61.2983 27L68.7463 7.68H70.1183L70.3423 10.2L64.0983 27H61.2983ZM64.9383 21.568V19.16H74.9063V21.568H64.9383ZM69.3903 10.2L69.5023 7.68H71.0983L78.5463 27H75.6343L69.3903 10.2ZM80.2398 24.368L81.8078 22.436C82.6292 23.2013 83.5532 23.7987 84.5798 24.228C85.6252 24.6387 86.7732 24.844 88.0238 24.844C88.9012 24.844 89.6292 24.7227 90.2078 24.48C90.8052 24.2373 91.2532 23.92 91.5518 23.528C91.8505 23.1173 91.9998 22.6787 91.9998 22.212C91.9998 21.708 91.8598 21.2507 91.5798 20.84C91.3185 20.4107 90.8425 20 90.1518 19.608C89.4798 19.216 88.5278 18.8147 87.2958 18.404C85.7092 17.8627 84.4585 17.312 83.5438 16.752C82.6478 16.1733 82.0132 15.548 81.6398 14.876C81.2665 14.204 81.0798 13.4667 81.0798 12.664C81.0798 11.6933 81.3505 10.816 81.8918 10.032C82.4518 9.22933 83.2265 8.59467 84.2158 8.128C85.2052 7.64267 86.3438 7.4 87.6318 7.4C88.7332 7.4 89.8625 7.61467 91.0198 8.044C92.1772 8.47333 93.2038 9.07067 94.0998 9.836L92.5598 11.852C91.8692 11.18 91.0852 10.6573 90.2078 10.284C89.3492 9.91067 88.4252 9.724 87.4358 9.724C86.1852 9.724 85.2425 9.99467 84.6078 10.536C83.9918 11.0587 83.6838 11.6747 83.6838 12.384C83.6838 12.7947 83.8052 13.1867 84.0478 13.56C84.3092 13.9333 84.7572 14.2973 85.3918 14.652C86.0265 14.988 86.9225 15.3427 88.0798 15.716C89.7412 16.2387 91.0572 16.8267 92.0278 17.48C92.9985 18.1147 93.6985 18.8053 94.1278 19.552C94.5572 20.28 94.7718 21.0547 94.7718 21.876C94.7718 22.8653 94.5012 23.7707 93.9598 24.592C93.4185 25.4133 92.6252 26.0667 91.5798 26.552C90.5532 27.0373 89.2932 27.28 87.7998 27.28C86.8665 27.28 85.9238 27.1587 84.9718 26.916C84.0385 26.6547 83.1612 26.3093 82.3398 25.88C81.5185 25.432 80.8185 24.928 80.2398 24.368ZM99.1125 27V7.68H101.801V27H99.1125ZM101.353 21.204V17.732L110.005 7.68H113.281L104.909 17.172L104.713 17.396L101.353 21.204ZM103.873 17.676L105.581 15.744L113.841 27H110.509L103.873 17.676ZM116.49 27V24.732H124.778V27H116.49ZM116.49 9.948V7.68H124.778V9.948H116.49ZM119.29 27V7.68H121.978V27H119.29ZM129.82 27V7.68H132.508V27H129.82ZM131.22 27V24.592H142.448V27H131.22ZM131.22 18.404V15.996H140.908V18.404H131.22ZM131.22 10.088V7.68H142.308V10.088H131.22Z" fill="#333333"/>
<rect width="32" height="34" rx="16" fill="#0075FF"/>
<path d="M10.6 11.92V10.2H20.92V11.92H10.6ZM14.8 24V10.2H16.72V24H14.8Z" fill="white"/>
</svg>
