<svg width="24" height="27" viewBox="0 0 24 27" fill="none" xmlns="http://www.w3.org/2000/svg">
<path d="M22.0686 15.5583L21.5876 15.281C21.8042 14.1028 21.8042 12.895 21.5876 11.7168L22.0686 11.4395C22.4385 11.2261 22.7627 10.9419 23.0228 10.6032C23.2829 10.2645 23.4737 9.87792 23.5843 9.46547C23.695 9.05302 23.7233 8.62282 23.6677 8.19942C23.6121 7.77602 23.4737 7.36772 23.2603 6.99783C23.0469 6.62794 22.7627 6.30371 22.424 6.04364C22.0853 5.78357 21.6987 5.59276 21.2862 5.4821C20.8738 5.37144 20.4436 5.34311 20.0202 5.39871C19.5968 5.45432 19.1885 5.59277 18.8186 5.80617L18.3365 6.08458C17.426 5.30666 16.3797 4.7036 15.2501 4.30575V3.75C15.2501 2.88805 14.9077 2.0614 14.2982 1.4519C13.6887 0.84241 12.8621 0.5 12.0001 0.5C11.1382 0.5 10.3115 0.84241 9.70201 1.4519C9.09252 2.0614 8.75011 2.88805 8.75011 3.75V4.30575C7.62061 4.70503 6.57461 5.30957 5.66477 6.08892L5.18052 5.80833C4.4335 5.37736 3.54586 5.26079 2.71289 5.48427C1.87991 5.70775 1.16983 6.25297 0.738858 7C0.307881 7.74703 0.191311 8.63466 0.414792 9.46764C0.638272 10.3006 1.1835 11.0107 1.93052 11.4417L2.41152 11.719C2.19498 12.8972 2.19498 14.105 2.41152 15.2832L1.93052 15.5605C1.1835 15.9915 0.638272 16.7016 0.414792 17.5345C0.191311 18.3675 0.307881 19.2551 0.738858 20.0022C1.16983 20.7492 1.87991 21.2944 2.71289 21.5179C3.54586 21.7414 4.4335 21.6248 5.18052 21.1938L5.66261 20.9154C6.57344 21.6935 7.62017 22.2965 8.75011 22.6943V23.25C8.75011 24.112 9.09252 24.9386 9.70201 25.5481C10.3115 26.1576 11.1382 26.5 12.0001 26.5C12.8621 26.5 13.6887 26.1576 14.2982 25.5481C14.9077 24.9386 15.2501 24.112 15.2501 23.25V22.6943C16.3796 22.295 17.4256 21.6904 18.3354 20.9111L18.8197 21.1906C19.5667 21.6216 20.4544 21.7381 21.2873 21.5147C22.1203 21.2912 22.8304 20.7459 23.2614 19.9989C23.6923 19.2519 23.8089 18.3643 23.5854 17.5313C23.3619 16.6983 22.8167 15.9882 22.0697 15.5573L22.0686 15.5583ZM19.3083 11.4677C19.6751 12.797 19.6751 14.2008 19.3083 15.5302C19.2442 15.7615 19.2588 16.0076 19.3498 16.2298C19.4408 16.452 19.603 16.6376 19.8109 16.7576L20.9853 17.4358C21.2342 17.5794 21.4159 17.8161 21.4904 18.0937C21.5649 18.3713 21.526 18.6672 21.3823 18.9161C21.2387 19.1651 21.002 19.3468 20.7244 19.4212C20.4467 19.4957 20.1509 19.4568 19.9019 19.3132L18.7254 18.6328C18.5173 18.5123 18.275 18.4644 18.0367 18.4968C17.7984 18.5292 17.5776 18.6399 17.4092 18.8116C16.4449 19.796 15.2301 20.4983 13.8959 20.8428C13.6631 20.9027 13.4567 21.0384 13.3094 21.2284C13.1621 21.4185 13.0822 21.6521 13.0824 21.8926V23.25C13.0824 23.5373 12.9682 23.8129 12.7651 24.016C12.5619 24.2192 12.2863 24.3333 11.999 24.3333C11.7117 24.3333 11.4362 24.2192 11.233 24.016C11.0298 23.8129 10.9157 23.5373 10.9157 23.25V21.8937C10.9158 21.6532 10.8359 21.4196 10.6886 21.2295C10.5413 21.0394 10.335 20.9038 10.1021 20.8439C8.76782 20.498 7.55338 19.7941 6.58994 18.8083C6.42151 18.6367 6.20074 18.5259 5.96243 18.4936C5.72411 18.4612 5.48181 18.509 5.27369 18.6296L4.09936 19.3088C3.97611 19.3811 3.83978 19.4283 3.69823 19.4476C3.55667 19.467 3.41269 19.4581 3.27457 19.4216C3.13644 19.3851 3.0069 19.3216 2.89341 19.2348C2.77992 19.148 2.68472 19.0397 2.61328 18.9159C2.54184 18.7922 2.49559 18.6556 2.47717 18.5139C2.45876 18.3722 2.46855 18.2283 2.50598 18.0904C2.54341 17.9525 2.60775 17.8234 2.69528 17.7105C2.78282 17.5976 2.89183 17.5031 3.01602 17.4325L4.19036 16.7543C4.3983 16.6344 4.56051 16.4487 4.65149 16.2265C4.74247 16.0044 4.75708 15.7583 4.69302 15.5269C4.32616 14.1976 4.32616 12.7937 4.69302 11.4644C4.75593 11.2335 4.74062 10.9883 4.64949 10.7671C4.55836 10.5458 4.39653 10.3609 4.18927 10.2413L3.01494 9.56317C2.76598 9.41951 2.58428 9.18283 2.50982 8.90521C2.43536 8.62759 2.47424 8.33175 2.6179 8.08279C2.76156 7.83383 2.99823 7.65213 3.27586 7.57768C3.55348 7.50322 3.84931 7.54209 4.09827 7.68575L5.27477 8.36608C5.48232 8.48689 5.72412 8.53531 5.96218 8.50374C6.20024 8.47217 6.42106 8.36239 6.58994 8.19167C7.5542 7.20729 8.76899 6.50494 10.1032 6.16042C10.3368 6.10036 10.5437 5.96406 10.691 5.77313C10.8384 5.58219 10.9179 5.34753 10.9168 5.10633V3.75C10.9168 3.46268 11.0309 3.18713 11.2341 2.98397C11.4372 2.7808 11.7128 2.66667 12.0001 2.66667C12.2874 2.66667 12.563 2.7808 12.7661 2.98397C12.9693 3.18713 13.0834 3.46268 13.0834 3.75V5.10633C13.0833 5.34679 13.1632 5.58045 13.3105 5.7705C13.4578 5.96056 13.6641 6.09621 13.897 6.15608C15.2317 6.50183 16.4465 7.20571 17.4103 8.19167C17.5787 8.36334 17.7995 8.47408 18.0378 8.50645C18.2761 8.53881 18.5184 8.49095 18.7265 8.37042L19.9009 7.69117C20.0241 7.61891 20.1604 7.57175 20.302 7.55239C20.4435 7.53304 20.5875 7.54188 20.7257 7.57839C20.8638 7.61491 20.9933 7.67839 21.1068 7.76517C21.2203 7.85196 21.3155 7.96033 21.3869 8.08406C21.4584 8.20779 21.5046 8.34443 21.523 8.48611C21.5415 8.62778 21.5317 8.7717 21.4942 8.90958C21.4568 9.04746 21.3925 9.17658 21.3049 9.28949C21.2174 9.4024 21.1084 9.49689 20.9842 9.5675L19.8099 10.2457C19.603 10.3656 19.4416 10.5506 19.3509 10.7718C19.2602 10.9931 19.2452 11.2381 19.3083 11.4688V11.4677Z" fill="#606265"/>
</svg>
